<svg xmlns="http://www.w3.org/2000/svg" xmlns:xlink="http://www.w3.org/1999/xlink" width="500" zoomAndPan="magnify" viewBox="0 0 375 374.999991" height="500" preserveAspectRatio="xMidYMid meet" version="1.0"><defs><g/><clipPath id="78dcc08bdd"><path d="M 118.929688 121.324219 L 192.238281 121.324219 L 192.238281 208.914062 L 118.929688 208.914062 Z M 118.929688 121.324219 " clip-rule="nonzero"/></clipPath><clipPath id="3e262d1ff2"><path d="M 227.730469 81.054688 L 308.277344 81.054688 L 308.277344 161.597656 L 227.730469 161.597656 Z M 227.730469 81.054688 " clip-rule="nonzero"/></clipPath><clipPath id="555b41bdf8"><path d="M 268.003906 81.054688 L 280.816406 108.511719 L 308.277344 121.324219 L 280.816406 134.140625 L 268.003906 161.597656 L 255.1875 134.140625 L 227.730469 121.324219 L 255.1875 108.511719 Z M 268.003906 81.054688 " clip-rule="nonzero"/></clipPath></defs><g fill="#f8f8f8" fill-opacity="1"><g transform="translate(69.525165, 290.035955)"><g><path d="M 22.234375 0 L 22.234375 -188.25 L 86.90625 -188.25 C 97.300781 -188.25 107.019531 -187.238281 116.0625 -185.21875 C 125.113281 -183.195312 133.007812 -179.828125 139.75 -175.109375 C 146.488281 -170.398438 151.828125 -164.144531 155.765625 -156.34375 C 159.710938 -148.550781 161.6875 -138.976562 161.6875 -127.625 C 161.6875 -116.644531 159.710938 -107.113281 155.765625 -99.03125 C 151.828125 -90.945312 146.488281 -84.304688 139.75 -79.109375 C 133.007812 -73.910156 125.210938 -70.0625 116.359375 -67.5625 C 107.503906 -65.0625 98.070312 -63.8125 88.0625 -63.8125 L 64.671875 -63.8125 L 64.671875 0 Z M 64.671875 -97.59375 L 85.46875 -97.59375 C 108.5625 -97.59375 120.109375 -107.601562 120.109375 -127.625 C 120.109375 -137.4375 117.03125 -144.363281 110.875 -148.40625 C 104.71875 -152.445312 95.863281 -154.46875 84.3125 -154.46875 L 64.671875 -154.46875 Z M 64.671875 -97.59375 "/></g></g></g><g clip-path="url(#78dcc08bdd)"><path fill="#f8f8f8" d="M 118.929688 121.324219 L 192.238281 121.324219 L 192.238281 208.914062 L 118.929688 208.914062 Z M 118.929688 121.324219 " fill-opacity="1" fill-rule="nonzero"/></g><g clip-path="url(#3e262d1ff2)"><g clip-path="url(#555b41bdf8)"><path fill="#ffd166" d="M 227.730469 81.054688 L 308.277344 81.054688 L 308.277344 161.597656 L 227.730469 161.597656 Z M 227.730469 81.054688 " fill-opacity="1" fill-rule="nonzero"/></g></g></svg>